{"title":"Runner Runner 2013 HDRiP H264 MP3 AVi MURDER","uid":9360451,"size":668518472,"categoryP":"video","categoryS":"movies","magnet":"?xt=urn:btih:fc9b119900658d68283c47fb3bc147af78c371a5&amp;dn=Runner+Runner+2013+HDRiP+H264+MP3+AVi+MURDER&amp;tr=udp%3A%2F%2Ftracker.openbittorrent.com%3A80&amp;tr=udp%3A%2F%2Fopen.demonii.com%3A1337&amp;tr=udp%3A%2F%2Ftracker.coppersurfer.tk%3A6969&amp;tr=udp%3A%2F%2Fexodus.desync.com%3A6969","seeders":0,"leechers":0,"uploader":"darkj6","files":-1,"time":1387305247,"description":" ______   _______  ______    ___   _      ___  --------|\n|      | |   _   ||    _ |  |   | | |    |   ||   |----|    \n|  _    ||  |_|  ||   | ||  |   |_| |    |   ||   |___ \n| | |   ||       ||   |_||_ |      _|    |   ||    _  |\n| |_|   ||       ||    __  ||     |_  ___|   ||   | | |\n|       ||   _   ||   |  | ||    _  ||       ||   |_| |\n|______| |__| |__||___|  |_||___| |_||_______||_______|\n\nWhen a poor college student who cracks an online poker game goes bust, he arranges a face-to-face with the man he thinks cheated him, a sly offshore entrepreneur.\n &lt;a href=&quot;\nhttp://www.imdb.com/title/tt2364841/&quot; rel=&quot;nofollow&quot; target=&quot;_NEW&quot;&gt;\nhttp://www.imdb.com/title/tt2364841/&lt;/a&gt;\n\n\n\n[font=Georgia]General\nSource                                   : PLAYNOW......THANKS\nComplete name                            : Runner Runner 2013 HDRiP H264 MP3 AVi MURDER.avi\nFormat                                   : AVI\nFormat/Info                              : Audio Video Interleave\nFile size                                : 636 MiB\nDuration                                 : 1h 31mn\nOverall bit rate                         : 974 Kbps\nWriting library                          : Lavf53.24.2\n\nVideo\nID                                       : 0\nFormat                                   : AVC\nFormat/Info                              : Advanced Video Codec\nFormat profile                           : &lt;a class=&quot;__cf_email__&quot; href=&quot;/cdn-cgi/l/email-protection&quot; data-cfemail=&quot;ca88abb9afa6a3a4af8a86f8e4fb&quot;&gt;[email&amp;#160;protected]&lt;/a&gt;&lt;script data-cfhash='f9e31' type=&quot;text/javascript&quot;&gt;\n/* &lt;![CDATA[ */!function(){try{var t=&quot;currentScript&quot;in document?document.currentScript:function(){for(var t=document.getElementsByTagName(&quot;script&quot;),e=t.length;e--;)if(t[e].getAttribute(&quot;data-cfhash&quot;))return t[e]}();if(t&amp;&amp;t.previousSibling){var e,r,n,i,c=t.previousSibling,a=c.getAttribute(&quot;data-cfemail&quot;);if(a){for(e=&quot;&quot;,r=parseInt(a.substr(0,2),16),n=2;a.length-n;n+=2)i=parseInt(a.substr(n,2),16)^r,e+=String.fromCharCode(i);e=document.createTextNode(e),c.parentNode.replaceChild(e,c)}t.parentNode.removeChild(t);}}catch(u){}}()/* ]]&gt; */&lt;/script&gt;\nFormat settings, CABAC                   : No\nFormat settings, ReFrames                : 1 frame\nCodec ID                                 : H264\nDuration                                 : 1h 31mn\nBit rate                                 : 750 Kbps\nWidth                                    : 640 pixels\nHeight                                   : 268 pixels\nDisplay aspect ratio                     : 2.40:1\nFrame rate mode                          : Variable\nFrame rate                               : 25.000 fps\nColor space                              : YUV\nChroma subsampling                       : 4:2:0\nBit depth                                : 8 bits\nScan type                                : Progressive\nBits/(Pixel*Frame)                       : 0.175\nStream size                              : 503 MiB (79%)\nWriting library                          : x264 core \n\nAudio\nID                                       : 1\nFormat                                   : MPEG Audio\nFormat version                           : Version 1\nFormat profile                           : Layer 3\nMode                                     : Joint stereo\nMode extension                           : MS Stereo\nCodec ID                                 : 55\nCodec ID/Hint                            : MP3\nDuration                                 : 1h 31mn\nBit rate mode                            : Constant\nBit rate                                 : 192 Kbps\nChannel(s)                               : 2 channels\nSampling rate                            : 44.1 KHz\nCompression mode                         : Lossy\nStream size                              : 125 MiB (20%)\nAlignment                                : Aligned on interleaves\nInterleave, duration                     : 26 ms (0.65 video frame)\nWriting library                          : LAME\n &lt;a href=&quot;\nhttp://s20.postimg.org/4irwmslml/vlcsnap_2013_12_17_09h14m33s66.png&quot; rel=&quot;nofollow&quot; target=&quot;_NEW&quot;&gt;\nhttp://s20.postimg.org/4irwmslml/vlcsnap_2013_12_17_09h14m33s66.png&lt;/a&gt;\n &lt;a href=&quot;\nhttp://s20.postimg.org/cpjwedbp9/vlcsnap_2013_12_17_09h14m03s18.png&quot; rel=&quot;nofollow&quot; target=&quot;_NEW&quot;&gt;\nhttp://s20.postimg.org/cpjwedbp9/vlcsnap_2013_12_17_09h14m03s18.png&lt;/a&gt;\n &lt;a href=&quot;\nhttp://s20.postimg.org/rzjrlk77h/vlcsnap_2013_12_17_09h14m38s116.png&quot; rel=&quot;nofollow&quot; target=&quot;_NEW&quot;&gt;\nhttp://s20.postimg.org/rzjrlk77h/vlcsnap_2013_12_17_09h14m38s116.png&lt;/a&gt;\n &lt;a href=&quot;\nhttp://s20.postimg.org/m00lvnbst/vlcsnap_2013_12_17_09h14m20s193.png&quot; rel=&quot;nofollow&quot; target=&quot;_NEW&quot;&gt;\nhttp://s20.postimg.org/m00lvnbst/vlcsnap_2013_12_17_09h14m20s193.png&lt;/a&gt;\n &lt;a href=&quot;\nhttp://s20.postimg.org/h2n1aj9tp/vlcsnap_2013_12_17_09h14m46s193.png&quot; rel=&quot;nofollow&quot; target=&quot;_NEW&quot;&gt;\nhttp://s20.postimg.org/h2n1aj9tp/vlcsnap_2013_12_17_09h14m46s193.png&lt;/a&gt;\n\n\n\n________________$$$$\n______________$$____$$\n______________$$____$$\n______________$$____$$\n______________$$____$$\n______________$$____$$\n__________$$$$$$____$$$$$$\n________$$____$$____$$____$$$$\n________$$____$$____$$____$$__$$\n$$$$$$__$$____$$____$$____$$____$$\n$$____$$$$________________$$____$$\n$$______$$______________________$$\n__$$____$$______________________$$\n___$$$__$$______________________$$\n____$$__________________________$$\n_____$$$________________________$$\n______$$______________________$$$\n_______$$$____________________$$\n________$$____________________$$\n_________$$$________________$$$\n__________$$________________$$\n__________$$$$$$$$$$$$$$$$$$$$","torrent":{"xt":"urn:btih:fc9b119900658d68283c47fb3bc147af78c371a5","amp;dn":"Runner+Runner+2013+HDRiP+H264+MP3+AVi+MURDER","amp;tr":["udp%3A%2F%2Ftracker.openbittorrent.com%3A80","udp%3A%2F%2Fopen.demonii.com%3A1337","udp%3A%2F%2Ftracker.coppersurfer.tk%3A6969","udp%3A%2F%2Fexodus.desync.com%3A6969"],"infoHash":"fc9b119900658d68283c47fb3bc147af78c371a5","infoHashBuffer":{"type":"Buffer","data":[252,155,17,153,0,101,141,104,40,60,71,251,59,193,71,175,120,195,113,165]},"announce":[],"urlList":[]}}